<?xml version="1.0" encoding="utf-8"?>
<!-- Generator: Adobe Illustrator 19.0.0, SVG Export Plug-In . SVG Version: 6.00 Build 0)  -->
<svg version="1.1" id="Layer_1" xmlns="http://www.w3.org/2000/svg" xmlns:xlink="http://www.w3.org/1999/xlink" x="0px" y="0px"
	 viewBox="0 0 4000 4000" style="enable-background:new 0 0 4000 4000;" xml:space="preserve">
<style type="text/css">
	.st0{fill:#FFFFFF;}
</style>
<g id="XMLID_299_">
	<g id="XMLID_464_">
		<path id="XMLID_34_" class="st0" d="M1708.5,3175.9c-212.6-51.3-414.2-159.8-580.1-325.8c-480.3-480.3-480.3-1259,0-1739.2
			c266-266,623.5-384.6,971.1-356V612.2c-384.1-28.3-777.9,104.4-1071.7,398.1c-535.8,535.8-535.8,1404.6,0,1940.4
			c193.8,193.8,431.3,317.5,680.7,371.1V3175.9z"/>
	</g>
	<g id="XMLID_317_">
		<path id="XMLID_32_" class="st0" d="M1896.5,912.6v410.5h-188V947.5c-171.8,48-334,139.4-469,274.5
			c-418.9,418.9-418.9,1098.1,0,1517c135.1,135.1,297.3,226.6,469,274.5V1561.7h188v1486.7c67.5,6.4,135.5,6.4,203,0v-387.2h188
			v352.4c171.8-48,334-139.4,469-274.5c418.9-418.9,418.9-1098.1,0-1517c-135.1-135.1-297.3-226.6-469-274.5v1475.1h-188v-1510
			C2032,906.2,1964,906.2,1896.5,912.6z"/>
	</g>
	<g id="XMLID_300_">
		<path id="XMLID_30_" class="st0" d="M2968.2,1010.3c-193.8-193.8-431.3-317.5-680.7-371.1v145.9
			c212.6,51.3,414.2,159.8,580.1,325.8c480.3,480.3,480.3,1259,0,1739.2c-266,266-623.5,384.6-971.1,356v142.7
			c384.1,28.3,777.9-104.4,1071.7-398.1C3504,2414.9,3504,1546.1,2968.2,1010.3z"/>
	</g>
</g>
<g id="XMLID_202_">
	<path id="XMLID_297_" class="st0" d="M623.4,1287.2c60.6-119.8,136.3-230.7,224.8-330L679.5,788.5
		C569.4,910.2,475.9,1047,402.6,1195.7L623.4,1287.2z"/>
	<path id="XMLID_294_" class="st0" d="M463,1864.8c10.2-136.8,38.2-268.5,81.8-393l-220.4-91.3c-54.8,152.8-89.3,315.3-100.1,484.3
		H463z"/>
	<path id="XMLID_237_" class="st0" d="M610.7,2648.4l-220.4,91.3c71.9,151.9,164.7,292,274.7,416.6l168.8-168.8
		C745.2,2885.4,670,2771.4,610.7,2648.4z"/>
	<path id="XMLID_236_" class="st0" d="M535.5,2462.3c-41.5-125.9-67.1-258.9-74.6-396.8H222.4c8,170.1,40,333.9,92.5,488.2
		L535.5,2462.3z"/>
	<path id="XMLID_235_" class="st0" d="M805.9,3299.1c247.6,223.9,558.4,379.1,902.6,435.5v-241.9c-278.5-53-530.4-181-733.9-362.2
		L805.9,3299.1z"/>
	<path id="XMLID_215_" class="st0" d="M991,816.3c62.4-54,129.1-103.1,199.7-146.7V396.4c-133.5,68.2-257,152.9-368.4,251.2
		L991,816.3z"/>
</g>
<g id="XMLID_129_">
	<path id="XMLID_201_" class="st0" d="M3372.6,1287.2l220.8-91.5c-73.3-148.7-166.8-285.5-276.9-407.2l-168.7,168.7
		C3236.3,1056.5,3312,1167.3,3372.6,1287.2z"/>
	<path id="XMLID_200_" class="st0" d="M3535.1,2065.5c-7.5,137.9-33.1,271-74.6,396.8l220.6,91.4c52.5-154.3,84.5-318.1,92.5-488.2
		H3535.1z"/>
	<path id="XMLID_196_" class="st0" d="M3385.3,2648.4c-59.4,123-134.6,237-223,339.2l168.8,168.8c110-124.6,202.8-264.7,274.7-416.6
		L3385.3,2648.4z"/>
	<path id="XMLID_139_" class="st0" d="M3021.4,3130.4c-203.5,181.2-455.4,309.2-733.9,362.2v241.9c344.1-56.4,655-211.6,902.6-435.5
		L3021.4,3130.4z"/>
	<path id="XMLID_138_" class="st0" d="M3451.2,1471.8c43.6,124.5,71.6,256.3,81.8,393h238.7c-10.9-169-45.3-331.5-100.1-484.3
		L3451.2,1471.8z"/>
	<path id="XMLID_133_" class="st0" d="M3173.7,647.5c-111.3-98.3-234.9-183-368.4-251.2v273.2c70.6,43.5,137.3,92.7,199.7,146.7
		L3173.7,647.5z"/>
</g>
</svg>
