<?xml version="1.0" encoding="utf-8"?>
<!-- Generator: Adobe Illustrator 19.0.0, SVG Export Plug-In . SVG Version: 6.00 Build 0)  -->
<svg version="1.1" id="Layer_1" xmlns="http://www.w3.org/2000/svg" xmlns:xlink="http://www.w3.org/1999/xlink" x="0px" y="0px"
	 viewBox="0 0 4000 4000" style="enable-background:new 0 0 4000 4000;" xml:space="preserve">
<style type="text/css">
	.st0{fill:url(#XMLID_70_);}
	.st1{fill:url(#XMLID_71_);}
	.st2{fill:url(#XMLID_72_);}
	.st3{fill:url(#XMLID_73_);}
	.st4{fill:url(#XMLID_74_);}
	.st5{fill:url(#XMLID_75_);}
	.st6{fill:url(#XMLID_76_);}
	.st7{fill:url(#XMLID_77_);}
	.st8{fill:url(#XMLID_78_);}
	.st9{fill:url(#XMLID_79_);}
	.st10{fill:url(#XMLID_80_);}
	.st11{fill:url(#XMLID_81_);}
	.st12{fill:url(#XMLID_82_);}
	.st13{fill:url(#XMLID_83_);}
	.st14{fill:url(#XMLID_84_);}
	.st15{fill:url(#XMLID_85_);}
	.st16{fill:url(#XMLID_86_);}
	.st17{fill:url(#XMLID_87_);}
	.st18{fill:url(#XMLID_88_);}
	.st19{fill:url(#XMLID_89_);}
	.st20{fill:url(#XMLID_90_);}
	.st21{fill:url(#XMLID_91_);}
	.st22{fill:url(#XMLID_92_);}
	.st23{fill:url(#XMLID_93_);}
	.st24{fill:url(#XMLID_94_);}
</style>
<g id="XMLID_299_">
	<g id="XMLID_464_">
		<linearGradient id="XMLID_70_" gradientUnits="userSpaceOnUse" x1="1227.0331" y1="2035.2041" x2="363.0264" y2="2030.559">
			<stop  offset="0" style="stop-color:#00A9C5"/>
			<stop  offset="1" style="stop-color:#5368C1"/>
		</linearGradient>
		<path id="XMLID_31_" class="st0" d="M708.1,2428.4c-69.5-16.8-135.4-52.2-189.6-106.5c-157-157-157-411.5,0-568.4
			c86.9-86.9,203.8-125.7,317.4-116.3v-46.6c-125.6-9.3-254.3,34.1-350.3,130.1c-175.1,175.1-175.1,459.1,0,634.2
			c63.4,63.4,140.9,103.8,222.5,121.3V2428.4z"/>
	</g>
	<g id="XMLID_317_">
		<linearGradient id="XMLID_71_" gradientUnits="userSpaceOnUse" x1="452.1133" y1="2037.6948" x2="1153.2996" y2="2037.6948">
			<stop  offset="0" style="stop-color:#FFC03B"/>
			<stop  offset="1" style="stop-color:#D27E3D"/>
		</linearGradient>
		<path id="XMLID_29_" class="st1" d="M769.5,1688.7v134.2h-61.4v-122.8c-56.1,15.7-109.1,45.6-153.3,89.7
			c-136.9,136.9-136.9,358.9,0,495.8c44.2,44.2,97.2,74,153.3,89.7v-474.5h61.4v485.9c22.1,2.1,44.3,2.1,66.3,0v-126.6h61.4v115.2
			c56.1-15.7,109.1-45.6,153.3-89.7c136.9-136.9,136.9-358.9,0-495.8c-44.2-44.2-97.2-74-153.3-89.7v482.1h-61.4v-493.5
			C813.8,1686.6,791.6,1686.6,769.5,1688.7z"/>
	</g>
	<g id="XMLID_300_">
		<linearGradient id="XMLID_72_" gradientUnits="userSpaceOnUse" x1="1226.9817" y1="2044.7479" x2="362.9751" y2="2040.1027">
			<stop  offset="0" style="stop-color:#00A9C5"/>
			<stop  offset="1" style="stop-color:#5368C1"/>
		</linearGradient>
		<path id="XMLID_27_" class="st2" d="M1119.8,1720.6c-63.4-63.4-140.9-103.8-222.5-121.3v47.7c69.5,16.8,135.4,52.2,189.6,106.5
			c157,157,157,411.5,0,568.4c-86.9,86.9-203.8,125.7-317.4,116.3v46.6c125.6,9.3,254.3-34.1,350.3-130.1
			C1294.9,2179.7,1294.9,1895.7,1119.8,1720.6z"/>
	</g>
</g>
<g id="XMLID_202_">
	<linearGradient id="XMLID_73_" gradientUnits="userSpaceOnUse" x1="1400.9573" y1="1888.8594" x2="269.2687" y2="1715.2875">
		<stop  offset="0" style="stop-color:#FFC03B"/>
		<stop  offset="1" style="stop-color:#D27E3D"/>
	</linearGradient>
	<path id="XMLID_297_" class="st3" d="M353.4,1811.1c19.8-39.2,44.6-75.4,73.5-107.8l-55.1-55.1c-36,39.8-66.5,84.5-90.5,133.1
		L353.4,1811.1z"/>
	<linearGradient id="XMLID_74_" gradientUnits="userSpaceOnUse" x1="1369.4832" y1="2094.0708" x2="237.7946" y2="1920.4988">
		<stop  offset="0" style="stop-color:#FFC03B"/>
		<stop  offset="1" style="stop-color:#D27E3D"/>
	</linearGradient>
	<path id="XMLID_294_" class="st4" d="M301,1999.9c3.3-44.7,12.5-87.8,26.7-128.5l-72-29.8c-17.9,50-29.2,103.1-32.7,158.3H301z"/>
	<linearGradient id="XMLID_75_" gradientUnits="userSpaceOnUse" x1="1309.5411" y1="2484.8931" x2="177.8525" y2="2311.321">
		<stop  offset="0" style="stop-color:#FFC03B"/>
		<stop  offset="1" style="stop-color:#D27E3D"/>
	</linearGradient>
	<path id="XMLID_237_" class="st5" d="M349.3,2256l-72,29.8c23.5,49.7,53.8,95.4,89.8,136.2l55.2-55.2
		C393.3,2333.4,368.7,2296.2,349.3,2256z"/>
	<linearGradient id="XMLID_76_" gradientUnits="userSpaceOnUse" x1="1336.6945" y1="2307.8528" x2="205.0059" y2="2134.281">
		<stop  offset="0" style="stop-color:#FFC03B"/>
		<stop  offset="1" style="stop-color:#D27E3D"/>
	</linearGradient>
	<path id="XMLID_236_" class="st6" d="M324.7,2195.2c-13.5-41.1-21.9-84.6-24.4-129.7h-78c2.6,55.6,13.1,109.1,30.2,159.6
		L324.7,2195.2z"/>
	<linearGradient id="XMLID_77_" gradientUnits="userSpaceOnUse" x1="1288.8629" y1="2619.7148" x2="157.1743" y2="2446.1431">
		<stop  offset="0" style="stop-color:#FFC03B"/>
		<stop  offset="1" style="stop-color:#D27E3D"/>
	</linearGradient>
	<path id="XMLID_235_" class="st7" d="M413.1,2468.6c80.9,73.2,182.5,123.9,295,142.3v-79.1c-91-17.3-173.4-59.2-239.9-118.4
		L413.1,2468.6z"/>
	<linearGradient id="XMLID_78_" gradientUnits="userSpaceOnUse" x1="1425.3911" y1="1729.5509" x2="293.7025" y2="1555.979">
		<stop  offset="0" style="stop-color:#FFC03B"/>
		<stop  offset="1" style="stop-color:#D27E3D"/>
	</linearGradient>
	<path id="XMLID_215_" class="st8" d="M473.6,1657.2c20.4-17.6,42.2-33.7,65.3-47.9V1520c-43.6,22.3-84,50-120.4,82.1L473.6,1657.2z
		"/>
</g>
<g id="XMLID_129_">
	<linearGradient id="XMLID_79_" gradientUnits="userSpaceOnUse" x1="1421.1868" y1="1756.9636" x2="289.4981" y2="1583.3917">
		<stop  offset="0" style="stop-color:#FFC03B"/>
		<stop  offset="1" style="stop-color:#D27E3D"/>
	</linearGradient>
	<path id="XMLID_201_" class="st9" d="M1252,1811.1l72.2-29.9c-24-48.6-54.5-93.3-90.5-133.1l-55.1,55.1
		C1207.4,1735.7,1232.2,1771.9,1252,1811.1z"/>
	<linearGradient id="XMLID_80_" gradientUnits="userSpaceOnUse" x1="1361.7784" y1="2144.3057" x2="230.0898" y2="1970.7338">
		<stop  offset="0" style="stop-color:#FFC03B"/>
		<stop  offset="1" style="stop-color:#D27E3D"/>
	</linearGradient>
	<path id="XMLID_200_" class="st10" d="M1305.1,2065.5c-2.5,45.1-10.8,88.6-24.4,129.7l72.1,29.9c17.2-50.4,27.6-104,30.2-159.6
		H1305.1z"/>
	<linearGradient id="XMLID_81_" gradientUnits="userSpaceOnUse" x1="1329.9751" y1="2351.6631" x2="198.2865" y2="2178.0913">
		<stop  offset="0" style="stop-color:#FFC03B"/>
		<stop  offset="1" style="stop-color:#D27E3D"/>
	</linearGradient>
	<path id="XMLID_196_" class="st11" d="M1256.1,2256c-19.4,40.2-44,77.5-72.9,110.8l55.2,55.2c35.9-40.7,66.3-86.5,89.8-136.2
		L1256.1,2256z"/>
	<linearGradient id="XMLID_82_" gradientUnits="userSpaceOnUse" x1="1298.7247" y1="2555.4158" x2="167.0361" y2="2381.844">
		<stop  offset="0" style="stop-color:#FFC03B"/>
		<stop  offset="1" style="stop-color:#D27E3D"/>
	</linearGradient>
	<path id="XMLID_139_" class="st12" d="M1137.2,2413.5c-66.5,59.2-148.8,101.1-239.9,118.4v79.1c112.5-18.4,214.1-69.1,295-142.3
		L1137.2,2413.5z"/>
	<linearGradient id="XMLID_83_" gradientUnits="userSpaceOnUse" x1="1394.4814" y1="1931.0824" x2="262.7928" y2="1757.5105">
		<stop  offset="0" style="stop-color:#FFC03B"/>
		<stop  offset="1" style="stop-color:#D27E3D"/>
	</linearGradient>
	<path id="XMLID_138_" class="st13" d="M1277.7,1871.4c14.2,40.7,23.4,83.8,26.7,128.5h78c-3.6-55.2-14.8-108.3-32.7-158.3
		L1277.7,1871.4z"/>
	<linearGradient id="XMLID_84_" gradientUnits="userSpaceOnUse" x1="1439.0194" y1="1640.6942" x2="307.3308" y2="1467.1223">
		<stop  offset="0" style="stop-color:#FFC03B"/>
		<stop  offset="1" style="stop-color:#D27E3D"/>
	</linearGradient>
	<path id="XMLID_133_" class="st14" d="M1187,1602c-36.4-32.1-76.8-59.8-120.4-82.1v89.3c23.1,14.2,44.9,30.3,65.3,47.9L1187,1602z"
		/>
</g>
<g id="XMLID_2_">
	<linearGradient id="XMLID_85_" gradientUnits="userSpaceOnUse" x1="1452.4172" y1="1860.759" x2="5344.4268" y2="1860.759">
		<stop  offset="0" style="stop-color:#FFC03B"/>
		<stop  offset="1" style="stop-color:#D27E3D"/>
	</linearGradient>
	<path id="XMLID_11_" class="st15" d="M1481.8,1994.2v-40.1c0-1.8,0.9-2.7,2.7-2.7h64.2c9.3,0,17.2-3.4,23.5-10.1
		c6.4-6.7,9.5-14.8,9.5-24.1s-3.2-17.2-9.7-23.5c-6.5-6.4-14.3-9.5-23.3-9.5h-49c-2.6,0-3.9-1.3-3.9-3.9v-40.5
		c0-0.5,0.3-1.1,0.8-1.8c0.5-0.6,1.2-1,1.9-1h21.8c8.8,0,16.4-3.2,22.8-9.7c6.4-6.5,9.5-14.1,9.5-23c0-9.1-3.2-16.9-9.7-23.3
		c-6.5-6.5-14.3-9.7-23.3-9.7h-28c-3.6,0-6.8,1.3-9.5,3.9c-2.7,2.6-4.1,5.7-4.1,9.3v10.1c0,0.8-0.3,1.4-1,1.9
		c-0.7,0.5-1.2,0.8-1.8,0.8h-33.8c-2.1,0-3.1-0.9-3.1-2.7v-67.3c0-1.8,1-2.7,3.1-2.7h78.2c14.5,0,27.9,3.6,40.1,10.7
		c12.2,7.1,21.8,16.8,29,29c7.1,12.2,10.7,25.6,10.7,40.1c0,15-4.2,29.2-12.4,42.4c13,7.3,23.2,17.2,30.7,29.8
		c7.5,12.6,11.3,26.1,11.3,40.7c0,14.5-3.6,27.9-10.7,40.1c-7.1,12.2-16.9,21.9-29.2,29c-12.3,7.1-25.7,10.7-40.3,10.7h-64.2
		C1482.7,1996.9,1481.8,1996,1481.8,1994.2z"/>
	<linearGradient id="XMLID_86_" gradientUnits="userSpaceOnUse" x1="1452.4172" y1="1860.5647" x2="5344.4268" y2="1860.5647">
		<stop  offset="0" style="stop-color:#FFC03B"/>
		<stop  offset="1" style="stop-color:#D27E3D"/>
	</linearGradient>
	<path id="XMLID_23_" class="st16" d="M1691,1993.6c-1.4-1.4-2.1-3-2.1-4.9v-256.4c0-2.1,0.7-3.8,2.1-5.1c1.4-1.3,3-1.9,4.9-1.9
		h174.3c2.1,0,3.8,0.7,5.1,1.9c1.3,1.3,1.9,3,1.9,5.1v32.7c0,1.8-0.7,3.4-1.9,4.9c-1.3,1.4-3,2.1-5.1,2.1h-125.7
		c-1.8,0-3.4,0.7-4.9,1.9c-1.4,1.3-2.1,3-2.1,5.1v57.2v1.2c0,2.3,0.5,4,1.6,4.9c1,0.9,3.5,1.4,7.4,1.4h97.3c1.8,0,3.4,0.6,4.7,1.8
		c1.3,1.2,1.9,2.7,1.9,4.5v33.1c0,1.8-0.7,3.3-1.9,4.5c-1.3,1.2-2.9,1.8-4.7,1.8H1746c-3.4,0-5.6,1-6.8,2.9c-1.2,1.9-1.8,4-1.8,6
		v41.2c0,2.6,0.7,4.8,2.1,6.6c1.4,1.8,4.3,2.7,8.8,2.7h124.5c1.8,0,3.4,0.7,4.9,2.1c1.4,1.4,2.1,3.2,2.1,5.3v32.7
		c0,1.8-0.7,3.4-1.9,4.9c-1.3,1.4-3,2.1-5.1,2.1h-177C1694,1995.8,1692.4,1995.1,1691,1993.6z"/>
	<linearGradient id="XMLID_87_" gradientUnits="userSpaceOnUse" x1="1452.4172" y1="1860.9536" x2="5344.4268" y2="1860.9536">
		<stop  offset="0" style="stop-color:#FFC03B"/>
		<stop  offset="1" style="stop-color:#D27E3D"/>
	</linearGradient>
	<path id="XMLID_30_" class="st17" d="M1935.9,1995.8c-0.8-1-1-2.2-0.8-3.5l68.9-261.8c0.5-1.6,1.5-2.9,2.9-4.1
		c1.4-1.2,3-1.8,4.9-1.8h80.9c1.6,0,3.1,0.5,4.7,1.6c1.6,1,2.6,2.3,3.1,3.9l68.9,261.8v1.2c0,2.9-1.3,4.3-3.9,4.3h-38.1
		c-1.6,0-3.2-0.6-4.9-1.8c-1.7-1.2-2.7-2.5-2.9-4.1l-19.1-72.4c-0.5-2.3-1.8-4.3-3.9-5.8c-2.1-1.6-4.3-2.3-6.6-2.3h-75.5
		c-2.3,0-4.5,0.8-6.6,2.3c-2.1,1.6-3.4,3.5-3.9,5.8l-19.1,72c-0.3,1.8-1.2,3.3-2.9,4.5c-1.7,1.2-3.3,1.8-4.9,1.8H1939
		C1937.7,1997.3,1936.6,1996.8,1935.9,1995.8z M2077.9,1869.3c2.6,0,4.6-0.9,6-2.7c1.4-1.8,1.9-3.9,1.4-6.2l-21.8-80.1
		c-0.3-2.1-1.4-3.9-3.5-5.4c-2.1-1.6-4.3-2.3-6.6-2.3h-2.3c-2.3,0-4.5,0.8-6.6,2.3c-2.1,1.6-3.2,3.4-3.5,5.4l-21.4,80.1l-0.4,1.9
		c0,2.1,0.6,3.8,1.9,5.1c1.3,1.3,3.1,1.9,5.4,1.9H2077.9z"/>
	<linearGradient id="XMLID_88_" gradientUnits="userSpaceOnUse" x1="1452.4172" y1="1860.9536" x2="5344.4268" y2="1860.9536">
		<stop  offset="0" style="stop-color:#FFC03B"/>
		<stop  offset="1" style="stop-color:#D27E3D"/>
	</linearGradient>
	<path id="XMLID_34_" class="st18" d="M2264.8,1995.4c-0.9-1-1.4-2.2-1.4-3.5V1781c0-2.3-1-4.5-2.9-6.4s-4.2-2.9-6.8-2.9h-65.4
		c-1,0-2.1-0.5-3.1-1.6c-1-1-1.6-2.1-1.6-3.1v-37.7c0-1.3,0.4-2.3,1.4-3.1c0.9-0.8,2-1.2,3.3-1.2h205.4c1.6,0,2.9,0.5,3.9,1.6
		c1,1,1.6,2.2,1.6,3.5v36.6c0,1.3-0.5,2.5-1.6,3.5c-1,1-2.3,1.6-3.9,1.6h-64.6c-2.6,0-4.8,0.9-6.6,2.7c-1.8,1.8-2.7,4-2.7,6.6v210.9
		c0,1.3-0.5,2.5-1.4,3.5c-0.9,1-2.1,1.6-3.7,1.6h-46.3C2267,1996.9,2265.7,1996.4,2264.8,1995.4z"/>
	<linearGradient id="XMLID_89_" gradientUnits="userSpaceOnUse" x1="1452.4172" y1="1860.5647" x2="5344.4268" y2="1860.5647">
		<stop  offset="0" style="stop-color:#FFC03B"/>
		<stop  offset="1" style="stop-color:#D27E3D"/>
	</linearGradient>
	<path id="XMLID_36_" class="st19" d="M2463.6,1994.8c-1.4-1.4-2.1-3-2.1-4.9v-258.3c0-2.1,0.7-3.8,2.1-5.3c1.4-1.4,3-2.1,4.9-2.1
		h42c1.8,0,3.4,0.7,4.9,2.1c1.4,1.4,2.1,3.2,2.1,5.3v89.5l79-92.6c2.3-2.9,5.2-4.3,8.6-4.3h55.6c2.9,0,4.5,0.5,5.1,1.6
		c0.5,1,0.4,2.1-0.4,3.1l-141.6,165.7c-4.2,4.9-6.2,11.2-6.2,18.7v76.6c0,1.8-0.7,3.4-1.9,4.9c-1.3,1.4-3,2.1-5.1,2.1h-42
		C2466.7,1996.9,2465,1996.2,2463.6,1994.8z M2606,1994.8c-2.5-1.2-4.5-2.9-6-5.3l-41.2-58.7c-1.8-2.9-2.7-5.2-2.7-7
		c0-2.3,1-4.8,3.1-7.4c2.1-2.3,4.5-5.1,7.2-8.4c2.7-3.2,5.4-6.3,8-9.1l8.2-9.7c1.6-2.1,3.4-3.1,5.4-3.1c2.3,0,4.3,1.2,5.8,3.5
		l70,99.2c0.5,1,0.8,1.9,0.8,2.7c0,3.4-2.3,5.2-7,5.4h-39.7C2612.4,1996.7,2608.5,1996,2606,1994.8z"/>
	<linearGradient id="XMLID_90_" gradientUnits="userSpaceOnUse" x1="1452.4172" y1="1860.5647" x2="5344.4268" y2="1860.5647">
		<stop  offset="0" style="stop-color:#FFC03B"/>
		<stop  offset="1" style="stop-color:#D27E3D"/>
	</linearGradient>
	<path id="XMLID_57_" class="st20" d="M2731.9,1995.4c-1-1-1.6-2.3-1.6-3.9v-261.8c0-1.6,0.5-2.9,1.6-3.9c1-1,2.3-1.6,3.9-1.6h40.9
		c1.6,0,2.9,0.6,3.9,1.8c1,1.2,1.6,2.4,1.6,3.7v101.5c0,2.3,0.9,4.4,2.7,6.2c1.8,1.8,3.9,2.7,6.2,2.7h73.9c2.3,0,4.3-0.8,6-2.5
		c1.7-1.7,2.7-3.8,2.9-6.4v-101.5c0-1.3,0.5-2.5,1.6-3.7c1-1.2,2.3-1.8,3.9-1.8h40.9c1.6,0,2.9,0.5,3.9,1.6c1,1,1.6,2.3,1.6,3.9
		v261.8c0,1.6-0.5,2.9-1.6,3.9c-1,1-2.3,1.6-3.9,1.6h-40.9c-1.6,0-2.9-0.6-3.9-1.8c-1-1.2-1.6-2.4-1.6-3.7v-90.3
		c-0.3-2.6-1.2-4.7-2.9-6.4c-1.7-1.7-3.7-2.5-6-2.5H2791c-2.3,0-4.3,0.8-6,2.3c-1.7,1.6-2.7,3.6-2.9,6.2v90.7c0,1.3-0.5,2.5-1.6,3.7
		c-1,1.2-2.3,1.8-3.9,1.8h-40.9C2734.2,1996.9,2732.9,1996.4,2731.9,1995.4z"/>
	<linearGradient id="XMLID_91_" gradientUnits="userSpaceOnUse" x1="1452.4172" y1="1860.9536" x2="5344.4268" y2="1860.9536">
		<stop  offset="0" style="stop-color:#FFC03B"/>
		<stop  offset="1" style="stop-color:#D27E3D"/>
	</linearGradient>
	<path id="XMLID_59_" class="st21" d="M2979.7,1995.8c-0.8-1-1-2.2-0.8-3.5l68.9-261.8c0.5-1.6,1.5-2.9,2.9-4.1
		c1.4-1.2,3-1.8,4.9-1.8h80.9c1.6,0,3.1,0.5,4.7,1.6c1.6,1,2.6,2.3,3.1,3.9l68.9,261.8v1.2c0,2.9-1.3,4.3-3.9,4.3h-38.1
		c-1.6,0-3.2-0.6-4.9-1.8c-1.7-1.2-2.7-2.5-2.9-4.1l-19.1-72.4c-0.5-2.3-1.8-4.3-3.9-5.8c-2.1-1.6-4.3-2.3-6.6-2.3h-75.5
		c-2.3,0-4.5,0.8-6.6,2.3c-2.1,1.6-3.4,3.5-3.9,5.8l-19.1,72c-0.3,1.8-1.2,3.3-2.9,4.5c-1.7,1.2-3.3,1.8-4.9,1.8h-38.1
		C2981.5,1997.3,2980.5,1996.8,2979.7,1995.8z M3121.7,1869.3c2.6,0,4.6-0.9,6-2.7c1.4-1.8,1.9-3.9,1.4-6.2l-21.8-80.1
		c-0.3-2.1-1.4-3.9-3.5-5.4c-2.1-1.6-4.3-2.3-6.6-2.3h-2.3c-2.3,0-4.5,0.8-6.6,2.3c-2.1,1.6-3.2,3.4-3.5,5.4l-21.4,80.1l-0.4,1.9
		c0,2.1,0.6,3.8,1.9,5.1c1.3,1.3,3.1,1.9,5.4,1.9H3121.7z"/>
	<linearGradient id="XMLID_92_" gradientUnits="userSpaceOnUse" x1="1452.4172" y1="1860.5645" x2="5344.4268" y2="1860.5645">
		<stop  offset="0" style="stop-color:#FFC03B"/>
		<stop  offset="1" style="stop-color:#D27E3D"/>
	</linearGradient>
	<path id="XMLID_62_" class="st22" d="M3267,1994.6c-1.2-1-1.8-2.3-1.8-3.9v-260.3c0-1.6,0.6-2.9,1.8-3.9c1.2-1,2.5-1.6,4.1-1.6
		h39.7c1.8,0,3.2,0.9,4.3,2.7l92.2,156c2.9,5.2,5.2,7.8,7,7.8c2.1,0,3.1-2.9,3.1-8.6l-0.8-152.5c0-1.6,0.6-2.9,1.8-3.9
		c1.2-1,2.5-1.6,4.1-1.6h40.9c1.6,0,2.9,0.5,4.1,1.6c1.2,1,1.8,2.3,1.8,3.9v260.3c0,1.6-0.6,2.9-1.8,3.9c-1.2,1-2.5,1.6-4.1,1.6
		h-27.6c-4.7,0-7.9-0.4-9.7-1.2c-1.8-0.8-3.8-2.9-5.8-6.2l-98-156c-1.6-2.3-3-3.5-4.3-3.5c-2.1,0-3.1,1.8-3.1,5.4l0.8,156
		c0,1.6-0.6,2.9-1.8,3.9c-1.2,1-2.4,1.6-3.7,1.6h-38.9C3269.5,1996.2,3268.2,1995.6,3267,1994.6z"/>
	<linearGradient id="XMLID_93_" gradientUnits="userSpaceOnUse" x1="1452.4172" y1="1860.9536" x2="5344.4268" y2="1860.9536">
		<stop  offset="0" style="stop-color:#FFC03B"/>
		<stop  offset="1" style="stop-color:#D27E3D"/>
	</linearGradient>
	<path id="XMLID_64_" class="st23" d="M3522,1995.8c-0.8-1-1-2.2-0.8-3.5l68.9-261.8c0.5-1.6,1.5-2.9,2.9-4.1c1.4-1.2,3-1.8,4.9-1.8
		h80.9c1.6,0,3.1,0.5,4.7,1.6c1.6,1,2.6,2.3,3.1,3.9l68.9,261.8v1.2c0,2.9-1.3,4.3-3.9,4.3h-38.1c-1.6,0-3.2-0.6-4.9-1.8
		c-1.7-1.2-2.7-2.5-2.9-4.1l-19.1-72.4c-0.5-2.3-1.8-4.3-3.9-5.8c-2.1-1.6-4.3-2.3-6.6-2.3h-75.5c-2.3,0-4.5,0.8-6.6,2.3
		c-2.1,1.6-3.4,3.5-3.9,5.8l-19.1,72c-0.3,1.8-1.2,3.3-2.9,4.5c-1.7,1.2-3.3,1.8-4.9,1.8h-38.1
		C3523.9,1997.3,3522.8,1996.8,3522,1995.8z M3664,1869.3c2.6,0,4.6-0.9,6-2.7c1.4-1.8,1.9-3.9,1.4-6.2l-21.8-80.1
		c-0.3-2.1-1.4-3.9-3.5-5.4c-2.1-1.6-4.3-2.3-6.6-2.3h-2.3c-2.3,0-4.5,0.8-6.6,2.3c-2.1,1.6-3.2,3.4-3.5,5.4l-21.4,80.1l-0.4,1.9
		c0,2.1,0.6,3.8,1.9,5.1c1.3,1.3,3.1,1.9,5.4,1.9H3664z"/>
	<linearGradient id="XMLID_94_" gradientUnits="userSpaceOnUse" x1="1452.4172" y1="1861.7317" x2="5344.4268" y2="1861.7317">
		<stop  offset="0" style="stop-color:#FFC03B"/>
		<stop  offset="1" style="stop-color:#D27E3D"/>
	</linearGradient>
	<path id="XMLID_67_" class="st24" d="M3823.6,1988c-6-6-8.9-13-8.9-21c0-8.3,2.9-15.4,8.8-21.4c5.8-6,12.9-8.9,21.2-8.9
		c8.3,0,15.4,3,21.4,8.9c6,6,8.9,13.1,8.9,21.4c0,8.3-3,15.4-8.9,21.2c-6,5.8-13.1,8.8-21.4,8.8
		C3836.5,1996.9,3829.5,1994,3823.6,1988z M3823.6,1918.7c-1.6-1.6-2.5-3.5-2.7-5.8l-3.1-178.2c0-2.3,0.8-4.3,2.3-5.8
		s3.5-2.3,5.8-2.3h37.7c2.3,0,4.3,0.8,5.8,2.3c1.6,1.6,2.3,3.5,2.3,5.8l-3.1,178.2c-0.3,2.3-1.2,4.3-2.7,5.8
		c-1.6,1.6-3.5,2.3-5.8,2.3h-30.7C3827.1,1921.1,3825.1,1920.3,3823.6,1918.7z"/>
</g>
</svg>
