<svg id="Layer_1" data-name="Layer 1" xmlns="http://www.w3.org/2000/svg" xmlns:xlink="http://www.w3.org/1999/xlink" viewBox="0 0 3652.53 1091"><defs><style>.cls-1{fill:url(#linear-gradient);}.cls-2{fill:url(#linear-gradient-2);}.cls-3{fill:url(#linear-gradient-3);}.cls-4{fill:url(#linear-gradient-4);}.cls-5{fill:url(#linear-gradient-5);}.cls-6{fill:url(#linear-gradient-6);}.cls-7{fill:url(#linear-gradient-7);}.cls-8{fill:url(#linear-gradient-8);}.cls-9{fill:url(#linear-gradient-9);}.cls-10{fill:url(#linear-gradient-10);}.cls-11{fill:url(#linear-gradient-11);}.cls-12{fill:url(#linear-gradient-12);}.cls-13{fill:url(#linear-gradient-13);}.cls-14{fill:url(#linear-gradient-14);}.cls-15{fill:url(#linear-gradient-15);}.cls-16{fill:url(#linear-gradient-16);}.cls-17{fill:url(#linear-gradient-17);}.cls-18{fill:url(#linear-gradient-18);}.cls-19{fill:url(#linear-gradient-23);}.cls-20{fill:url(#linear-gradient-25);}</style><linearGradient id="linear-gradient" x1="1004.65" y1="515.24" x2="140.64" y2="510.6" gradientUnits="userSpaceOnUse"><stop offset="0" stop-color="#00a9c5"/><stop offset="1" stop-color="#5168c1"/></linearGradient><linearGradient id="linear-gradient-2" x1="229.73" y1="517.73" x2="930.91" y2="517.73" gradientUnits="userSpaceOnUse"><stop offset="0" stop-color="#ffc03c"/><stop offset="1" stop-color="#d07e3d"/></linearGradient><linearGradient id="linear-gradient-3" x1="1004.59" y1="524.79" x2="140.59" y2="520.14" xlink:href="#linear-gradient"/><linearGradient id="linear-gradient-4" x1="1178.57" y1="368.9" x2="46.88" y2="195.33" xlink:href="#linear-gradient-2"/><linearGradient id="linear-gradient-5" x1="1147.1" y1="574.11" x2="15.41" y2="400.54" xlink:href="#linear-gradient-2"/><linearGradient id="linear-gradient-6" x1="1087.15" y1="964.93" x2="-44.54" y2="791.36" xlink:href="#linear-gradient-2"/><linearGradient id="linear-gradient-7" x1="1114.31" y1="787.89" x2="-17.38" y2="614.32" xlink:href="#linear-gradient-2"/><linearGradient id="linear-gradient-8" x1="1066.48" y1="1099.75" x2="-65.21" y2="926.18" xlink:href="#linear-gradient-2"/><linearGradient id="linear-gradient-9" x1="1203" y1="209.59" x2="71.31" y2="36.02" xlink:href="#linear-gradient-2"/><linearGradient id="linear-gradient-10" x1="1198.8" y1="237" x2="67.11" y2="63.43" xlink:href="#linear-gradient-2"/><linearGradient id="linear-gradient-11" x1="1139.39" y1="624.35" x2="7.7" y2="450.77" xlink:href="#linear-gradient-2"/><linearGradient id="linear-gradient-12" x1="1107.59" y1="831.7" x2="-24.1" y2="658.13" xlink:href="#linear-gradient-2"/><linearGradient id="linear-gradient-13" x1="1076.34" y1="1035.46" x2="-55.35" y2="861.88" xlink:href="#linear-gradient-2"/><linearGradient id="linear-gradient-14" x1="1172.09" y1="411.12" x2="40.41" y2="237.55" xlink:href="#linear-gradient-2"/><linearGradient id="linear-gradient-15" x1="1216.63" y1="120.73" x2="84.94" y2="-52.84" xlink:href="#linear-gradient-2"/><linearGradient id="linear-gradient-16" x1="1230.03" y1="340.8" x2="5122.04" y2="340.8" xlink:href="#linear-gradient-2"/><linearGradient id="linear-gradient-17" x1="1230.03" y1="340.6" x2="5122.04" y2="340.6" xlink:href="#linear-gradient-2"/><linearGradient id="linear-gradient-18" x1="1230.03" y1="340.99" x2="5122.04" y2="340.99" xlink:href="#linear-gradient-2"/><linearGradient id="linear-gradient-23" x1="1230.03" y1="340.6" x2="5122.04" y2="340.6" xlink:href="#linear-gradient-2"/><linearGradient id="linear-gradient-25" x1="1230.03" y1="341.77" x2="5122.04" y2="341.77" xlink:href="#linear-gradient-2"/></defs><path class="cls-1" d="M485.71,908.43A400.1,400.1,0,0,1,296.1,802c-157-157-157-411.46,0-568.43C383,146.59,499.87,107.83,613.49,117.18V70.54c-125.55-9.26-254.26,34.1-350.26,130.11-175.12,175.12-175.12,459.05,0,634.17A446.29,446.29,0,0,0,485.71,956.11Z"/><path class="cls-2" d="M547.15,168.71V302.88H485.71V180.11a348.89,348.89,0,0,0-153.3,89.72c-136.91,136.91-136.91,358.9,0,495.81a349,349,0,0,0,153.3,89.72V380.87h61.44V866.76a353.42,353.42,0,0,0,66.34,0V740.2h61.44V855.36a349,349,0,0,0,153.3-89.72c136.91-136.91,136.91-358.9,0-495.81a348.89,348.89,0,0,0-153.3-89.72v482.1H613.49V168.71A353.42,353.42,0,0,0,547.15,168.71Z"/><path class="cls-3" d="M897.41,200.65A446.33,446.33,0,0,0,674.93,79.36V127a399.94,399.94,0,0,1,189.6,106.48c157,157,157,411.46,0,568.43-86.92,86.93-203.76,125.69-317.38,116.33v46.65c125.55,9.26,254.25-34.1,350.26-130.11C1072.53,659.7,1072.53,375.77,897.41,200.65Z"/><path class="cls-4" d="M131.06,291.13a503.44,503.44,0,0,1,73.46-107.84l-55.13-55.13A582,582,0,0,0,58.9,261.24Z"/><path class="cls-5" d="M78.63,479.92a500.72,500.72,0,0,1,26.73-128.45l-72-29.83A578,578,0,0,0,.61,479.92Z"/><path class="cls-6" d="M126.9,736l-72,29.84A581.84,581.84,0,0,0,144.64,902l55.16-55.16A503.38,503.38,0,0,1,126.9,736Z"/><path class="cls-7" d="M102.34,675.2A501.52,501.52,0,0,1,78,545.5H0A579,579,0,0,0,30.24,705.07Z"/><path class="cls-8" d="M190.72,948.68a579,579,0,0,0,295,142.32v-79A501.56,501.56,0,0,1,245.84,893.57Z"/><path class="cls-9" d="M251.21,137.23a504.68,504.68,0,0,1,65.25-47.94V0a582.41,582.41,0,0,0-120.4,82.08Z"/><path class="cls-10" d="M1029.58,291.13l72.16-29.89a582,582,0,0,0-90.5-133.08l-55.12,55.13A503.81,503.81,0,0,1,1029.58,291.13Z"/><path class="cls-11" d="M1082.68,545.5a501.52,501.52,0,0,1-24.38,129.7l72.09,29.87a578.67,578.67,0,0,0,30.25-159.57Z"/><path class="cls-12" d="M1033.74,736a503.38,503.38,0,0,1-72.9,110.85L1016,902a581.8,581.8,0,0,0,89.76-136.17Z"/><path class="cls-13" d="M914.8,893.57A501.6,501.6,0,0,1,674.93,1012v79a579,579,0,0,0,295-142.32Z"/><path class="cls-14" d="M1055.28,351.47A501.14,501.14,0,0,1,1082,479.92h78a578.33,578.33,0,0,0-32.73-158.28Z"/><path class="cls-15" d="M964.57,82.08A582.08,582.08,0,0,0,844.18,0V89.29a504.68,504.68,0,0,1,65.25,47.94Z"/><path class="cls-16" d="M1259.45,474.25V434.17a2.41,2.41,0,0,1,2.73-2.72h64.19a31,31,0,0,0,23.54-10.12,34,34,0,0,0,9.53-24.12,31.68,31.68,0,0,0-9.73-23.54,32.16,32.16,0,0,0-23.34-9.53h-49c-2.6,0-3.89-1.29-3.89-3.89V319.79a2.87,2.87,0,0,1,.78-1.75,2.36,2.36,0,0,1,1.94-1H1298a30.77,30.77,0,0,0,22.76-9.73,33,33,0,0,0-23.54-56h-28a13.38,13.38,0,0,0-9.53,3.89,12.4,12.4,0,0,0-4.09,9.33v10.12a2.39,2.39,0,0,1-1,1.94,2.9,2.9,0,0,1-1.75.78H1219c-2.08,0-3.11-.9-3.11-2.72V207.35c0-1.81,1-2.72,3.11-2.72h78.2a78,78,0,0,1,40.07,10.7,79.69,79.69,0,0,1,29,29,79.37,79.37,0,0,1-1.75,82.48,81.72,81.72,0,0,1,30.73,29.77,79.59,79.59,0,0,1,.59,80.72A80.15,80.15,0,0,1,1326.37,477h-64.19A2.41,2.41,0,0,1,1259.45,474.25Z"/><path class="cls-17" d="M1468.57,473.66a6.67,6.67,0,0,1-2.14-4.86V212.41a6.52,6.52,0,0,1,2.14-5.06,7,7,0,0,1,4.86-1.94h174.3a6.66,6.66,0,0,1,7,7v32.68a7,7,0,0,1-1.94,4.86,6.52,6.52,0,0,1-5.06,2.14H1522.06a7,7,0,0,0-4.86,1.95,6.51,6.51,0,0,0-2.14,5.06v58.36q0,3.5,1.56,4.86c1,.91,3.5,1.36,7.39,1.36h97.26a6.73,6.73,0,0,1,4.67,1.75,5.75,5.75,0,0,1,2,4.48V363a5.75,5.75,0,0,1-2,4.47,6.73,6.73,0,0,1-4.67,1.75h-97.65q-5.05,0-6.81,2.92a11.63,11.63,0,0,0-1.75,6v41.24a10.34,10.34,0,0,0,2.14,6.61q2.13,2.73,8.76,2.73h124.49a6.7,6.7,0,0,1,4.87,2.14,7.16,7.16,0,0,1,2.14,5.25V468.8a7,7,0,0,1-2,4.86,6.51,6.51,0,0,1-5.06,2.14h-177A6.67,6.67,0,0,1,1468.57,473.66Z"/><path class="cls-18" d="M1713.48,475.8a4.19,4.19,0,0,1-.78-3.5l68.86-261.84a8.9,8.9,0,0,1,2.92-4.08,7.43,7.43,0,0,1,4.86-1.75h80.92a8.33,8.33,0,0,1,4.67,1.56,7.51,7.51,0,0,1,3.12,3.89l68.86,261.83v1.17c0,2.86-1.3,4.28-3.89,4.28h-38.13a8.64,8.64,0,0,1-4.86-1.75,6.28,6.28,0,0,1-2.92-4.09l-19.06-72.36a9.89,9.89,0,0,0-3.89-5.84,10.89,10.89,0,0,0-6.62-2.33h-75.47a10.86,10.86,0,0,0-6.62,2.33,9.8,9.8,0,0,0-3.89,5.84l-19.06,72a6.46,6.46,0,0,1-2.92,4.48,8.67,8.67,0,0,1-4.86,1.75h-38.13A3.68,3.68,0,0,1,1713.48,475.8Zm142-126.44a7.23,7.23,0,0,0,6-2.73,7.11,7.11,0,0,0,1.36-6.22l-21.78-80.15a8,8,0,0,0-3.5-5.44,10.83,10.83,0,0,0-6.62-2.34h-2.33a10.81,10.81,0,0,0-6.62,2.34,8,8,0,0,0-3.5,5.44l-21.4,80.15-.39,1.95a6.81,6.81,0,0,0,2,5.05,7.34,7.34,0,0,0,5.45,1.95Z"/><path class="cls-18" d="M2042.42,475.41a5.14,5.14,0,0,1-1.36-3.5V261a8.92,8.92,0,0,0-2.92-6.42,9.35,9.35,0,0,0-6.8-2.92H1966a5.47,5.47,0,0,1-4.66-4.66V209.3a3.87,3.87,0,0,1,1.36-3.11A4.86,4.86,0,0,1,1966,205H2171.4a5.32,5.32,0,0,1,3.89,1.55,4.88,4.88,0,0,1,1.55,3.51v36.57a4.86,4.86,0,0,1-1.55,3.5,5.28,5.28,0,0,1-3.89,1.55h-64.59a9.3,9.3,0,0,0-9.33,9.34V471.91a5.15,5.15,0,0,1-1.37,3.5,4.65,4.65,0,0,1-3.69,1.56h-46.3A4.66,4.66,0,0,1,2042.42,475.41Z"/><path class="cls-17" d="M2241.23,474.83a6.68,6.68,0,0,1-2.14-4.86V211.63a7.14,7.14,0,0,1,2.14-5.25,6.7,6.7,0,0,1,4.86-2.14h42a6.74,6.74,0,0,1,4.86,2.14,7.14,7.14,0,0,1,2.14,5.25v89.48l79-92.59a10.7,10.7,0,0,1,8.56-4.28h55.64q4.27,0,5.05,1.56a2.78,2.78,0,0,1-.39,3.11L2301.34,374.65q-6.23,7.39-6.23,18.67V470a7,7,0,0,1-1.94,4.86,6.52,6.52,0,0,1-5.06,2.14h-42A6.67,6.67,0,0,1,2241.23,474.83Zm142.39,0a14.81,14.81,0,0,1-6-5.25l-41.24-58.75c-1.81-2.85-2.72-5.19-2.72-7,0-2.34,1-4.8,3.11-7.4,2.07-2.33,4.48-5.11,7.2-8.36s5.38-6.29,8-9.14l8.17-9.73a6.71,6.71,0,0,1,5.44-3.11c2.34,0,4.28,1.16,5.84,3.5l70,99.21a6.25,6.25,0,0,1,.78,2.72q0,5.07-7,5.45h-39.68Q2387.32,476.58,2383.62,474.83Z"/><path class="cls-17" d="M2509.48,475.41a5.24,5.24,0,0,1-1.55-3.89V209.69a5.31,5.31,0,0,1,5.44-5.45h40.85a5,5,0,0,1,3.9,1.75,5.54,5.54,0,0,1,1.55,3.7V311.23a9.31,9.31,0,0,0,8.95,8.95h73.92a8.21,8.21,0,0,0,6-2.53,10.16,10.16,0,0,0,2.92-6.42V209.69a5.5,5.5,0,0,1,1.56-3.7,5,5,0,0,1,3.89-1.75h40.85a5.31,5.31,0,0,1,5.44,5.45V471.52a5.31,5.31,0,0,1-5.44,5.45h-40.85a5,5,0,0,1-3.89-1.75,5.5,5.5,0,0,1-1.56-3.7V381.26a10.21,10.21,0,0,0-2.92-6.42,8.25,8.25,0,0,0-6-2.53h-73.92a8.57,8.57,0,0,0-6,2.34,9.38,9.38,0,0,0-2.92,6.22v90.65a5.54,5.54,0,0,1-1.55,3.7,5,5,0,0,1-3.9,1.75h-40.85A5.28,5.28,0,0,1,2509.48,475.41Z"/><path class="cls-18" d="M2757.31,475.8a4.19,4.19,0,0,1-.78-3.5l68.86-261.84a8.9,8.9,0,0,1,2.92-4.08,7.47,7.47,0,0,1,4.87-1.75h80.92a8.36,8.36,0,0,1,4.67,1.56,7.44,7.44,0,0,1,3.11,3.89l68.86,261.83v1.17c0,2.86-1.3,4.28-3.89,4.28h-38.12a8.67,8.67,0,0,1-4.87-1.75,6.23,6.23,0,0,1-2.91-4.09l-19.07-72.36a9.85,9.85,0,0,0-3.89-5.84,10.88,10.88,0,0,0-6.61-2.33H2835.9a10.86,10.86,0,0,0-6.61,2.33,9.82,9.82,0,0,0-3.9,5.84l-19.06,72a6.42,6.42,0,0,1-2.92,4.48,8.64,8.64,0,0,1-4.86,1.75h-38.13A3.69,3.69,0,0,1,2757.31,475.8Zm142-126.44a7.23,7.23,0,0,0,6-2.73,7.14,7.14,0,0,0,1.36-6.22l-21.79-80.15a8,8,0,0,0-3.5-5.44,10.83,10.83,0,0,0-6.62-2.34h-2.33a10.81,10.81,0,0,0-6.61,2.34,8,8,0,0,0-3.5,5.44L2841,340.41l-.39,1.95a6.81,6.81,0,0,0,1.94,5.05,7.37,7.37,0,0,0,5.45,1.95Z"/><path class="cls-19" d="M3044.63,474.63a5,5,0,0,1-1.75-3.89V210.46a5,5,0,0,1,1.75-3.89,6,6,0,0,1,4.08-1.55h39.69a4.77,4.77,0,0,1,4.28,2.72l92.2,156q4.27,7.78,7,7.78,3.11,0,3.11-8.55l-.78-152.52a5,5,0,0,1,1.75-3.89,6,6,0,0,1,4.09-1.55h40.85a6,6,0,0,1,4.08,1.55,5,5,0,0,1,1.75,3.89V470.74a5,5,0,0,1-1.75,3.89,5.93,5.93,0,0,1-4.08,1.56h-27.63c-4.66,0-7.91-.39-9.72-1.17s-3.76-2.85-5.84-6.22l-98-156c-1.56-2.34-3-3.5-4.28-3.5-2.08,0-3.11,1.81-3.11,5.44l.78,156a5,5,0,0,1-1.75,3.89,5.52,5.52,0,0,1-3.7,1.56h-38.91A6,6,0,0,1,3044.63,474.63Z"/><path class="cls-18" d="M3299.65,475.8a4.22,4.22,0,0,1-.77-3.5l68.86-261.84a8.9,8.9,0,0,1,2.92-4.08,7.43,7.43,0,0,1,4.86-1.75h80.92a8.33,8.33,0,0,1,4.67,1.56,7.51,7.51,0,0,1,3.12,3.89l68.86,261.83v1.17c0,2.86-1.3,4.28-3.89,4.28h-38.13a8.62,8.62,0,0,1-4.86-1.75,6.28,6.28,0,0,1-2.92-4.09l-19.06-72.36a9.89,9.89,0,0,0-3.89-5.84,10.89,10.89,0,0,0-6.62-2.33h-75.48a10.86,10.86,0,0,0-6.61,2.33,9.8,9.8,0,0,0-3.89,5.84l-19.06,72a6.49,6.49,0,0,1-2.92,4.48,8.67,8.67,0,0,1-4.87,1.75h-38.12A3.71,3.71,0,0,1,3299.65,475.8Zm142-126.44a7.23,7.23,0,0,0,6-2.73,7.11,7.11,0,0,0,1.36-6.22l-21.78-80.15a8.06,8.06,0,0,0-3.51-5.44,10.83,10.83,0,0,0-6.61-2.34h-2.33a10.81,10.81,0,0,0-6.62,2.34,8,8,0,0,0-3.5,5.44l-21.4,80.15-.39,1.95a6.81,6.81,0,0,0,2,5.05,7.33,7.33,0,0,0,5.44,1.95Z"/><path class="cls-20" d="M3601.17,468a28.73,28.73,0,0,1-8.94-21,29.52,29.52,0,0,1,8.75-21.4,28.56,28.56,0,0,1,21.2-8.94A30.54,30.54,0,0,1,3652.53,447a28.55,28.55,0,0,1-9,21.2,29.53,29.53,0,0,1-21.4,8.76A28.75,28.75,0,0,1,3601.17,468Zm0-69.25a9.51,9.51,0,0,1-2.72-5.84l-3.11-178.19a8,8,0,0,1,8.17-8.17h37.74a8,8,0,0,1,8.17,8.17l-3.12,178.19a9.46,9.46,0,0,1-2.72,5.84,7.94,7.94,0,0,1-5.83,2.33H3607A8,8,0,0,1,3601.17,398.77Z"/></svg>