<?xml version="1.0" standalone="no"?>
<!DOCTYPE svg PUBLIC "-//W3C//DTD SVG 20010904//EN"
 "http://www.w3.org/TR/2001/REC-SVG-20010904/DTD/svg10.dtd">
<svg version="1.0" xmlns="http://www.w3.org/2000/svg"
 width="2560.000000pt" height="1440.000000pt" viewBox="0 0 2560.000000 1440.000000"
 preserveAspectRatio="xMidYMid meet">

<g transform="translate(0.000000,1440.000000) scale(0.100000,-0.100000)"
fill="#000000" stroke="none">
<path d="M0 7200 l0 -7200 12800 0 12800 0 0 7200 0 7200 -12800 0 -12800 0 0
-7200z m8913 6176 c44 -19 354 -334 362 -369 16 -64 3 -84 -178 -264 -179
-180 -201 -194 -264 -178 -39 9 -359 328 -374 372 -20 62 -7 82 174 264 200
200 209 206 280 175z m1080 0 c44 -19 354 -334 362 -369 16 -64 3 -84 -178
-264 -179 -180 -201 -194 -264 -178 -39 9 -359 328 -374 372 -20 62 -7 82 174
264 200 200 209 206 280 175z m1180 0 c44 -19 354 -334 362 -369 16 -64 3 -84
-178 -264 -179 -180 -201 -194 -264 -178 -39 9 -359 328 -374 372 -20 62 -7
82 174 264 200 200 209 206 280 175z m3250 0 c44 -19 354 -334 362 -369 16
-64 3 -84 -178 -264 -179 -180 -201 -194 -264 -178 -39 9 -359 328 -374 372
-20 62 -7 82 174 264 200 200 209 206 280 175z m1080 0 c44 -19 354 -334 362
-369 16 -64 3 -84 -178 -264 -179 -180 -201 -194 -264 -178 -39 9 -359 328
-374 372 -20 62 -7 82 174 264 200 200 209 206 280 175z m1180 0 c44 -19 354
-334 362 -369 16 -64 3 -84 -178 -264 -179 -180 -201 -194 -264 -178 -39 9
-359 328 -374 372 -20 62 -7 82 174 264 200 200 209 206 280 175z m-6969
-9897 c23 -18 26 -27 26 -82 0 -84 -21 -107 -101 -107 l-58 0 -3 -57 c-3 -51
-6 -58 -25 -61 l-23 -3 0 159 c0 87 3 162 7 165 3 4 39 7 78 7 58 0 78 -4 99
-21z m124 -121 l3 -138 69 0 c68 0 70 -1 70 -25 l0 -26 -92 3 -93 3 -3 163 -3
163 23 -3 c22 -3 23 -6 26 -140z m376 121 c26 -20 26 -21 26 -165 0 -145 0
-145 -22 -142 -20 3 -23 10 -26 61 l-3 57 -54 0 -54 0 -3 -57 c-3 -51 -6 -58
-25 -61 -23 -3 -23 -3 -23 138 0 136 1 142 25 165 33 33 119 36 159 4z m160
-49 c21 -38 39 -70 41 -70 3 0 21 32 40 70 29 58 39 70 60 70 13 0 26 -3 28
-7 2 -5 -20 -53 -49 -107 -48 -88 -54 -106 -54 -158 0 -55 -1 -58 -25 -58 -24
0 -25 3 -25 58 0 52 -6 70 -54 158 -29 54 -51 102 -49 107 2 4 15 7 27 7 19 0
31 -14 60 -70z m426 45 c0 -25 -1 -25 -80 -25 l-80 0 0 -45 0 -44 63 -3 c56
-3 62 -5 65 -25 3 -22 0 -23 -62 -23 l-66 0 0 -45 0 -45 80 0 c79 0 80 0 80
-25 l0 -26 -102 3 -103 3 -3 150 c-1 82 0 155 2 162 4 9 33 13 106 13 l100 0
0 -25z m254 4 c23 -18 26 -27 26 -83 0 -53 -4 -66 -25 -86 l-24 -23 24 -48
c31 -60 31 -69 0 -69 -20 0 -30 11 -55 60 -25 49 -35 60 -55 60 -22 0 -24 -4
-27 -57 -3 -51 -6 -58 -25 -61 l-23 -3 0 159 c0 87 3 162 7 165 3 4 39 7 78 7
58 0 78 -4 99 -21z m548 -80 l53 -100 5 98 c5 92 6 98 28 101 l22 3 0 -165 0
-166 -25 0 c-21 0 -32 14 -77 103 l-53 102 -5 -100 c-5 -94 -6 -100 -27 -103
l-23 -3 0 165 0 166 24 0 c21 0 33 -15 78 -101z m362 80 c26 -20 26 -21 26
-165 0 -145 0 -145 -22 -142 -20 3 -23 10 -26 61 l-3 57 -54 0 -54 0 -3 -57
c-3 -51 -6 -58 -25 -61 -23 -3 -23 -3 -23 138 0 136 1 142 25 165 33 33 119
36 159 4z m191 -48 c19 -38 38 -72 43 -75 4 -3 25 29 45 70 31 63 41 74 62 74
l25 0 0 -166 0 -165 -22 3 c-22 3 -23 8 -26 102 l-3 99 -30 -47 c-38 -61 -63
-60 -99 4 l-25 45 -5 -100 c-5 -94 -6 -100 -27 -103 l-23 -3 0 165 0 166 25 0
c21 0 31 -11 60 -69z m455 44 c0 -25 -1 -25 -80 -25 l-80 0 0 -45 0 -44 63 -3
c56 -3 62 -5 65 -25 3 -22 0 -23 -62 -23 l-66 0 0 -45 0 -45 80 0 c79 0 80 0
80 -25 l0 -26 -102 3 -103 3 -3 150 c-1 82 0 155 2 162 4 9 33 13 106 13 l100
0 0 -25z m564 4 c23 -18 26 -27 26 -82 0 -84 -21 -107 -101 -107 l-58 0 -3
-57 c-3 -51 -6 -58 -25 -61 l-23 -3 0 159 c0 87 3 162 7 165 3 4 39 7 78 7 58
0 78 -4 99 -21z m124 -121 l3 -138 69 0 c68 0 70 -1 70 -25 l0 -26 -92 3 -93
3 -3 163 -3 163 23 -3 c22 -3 23 -6 26 -140z m376 121 c26 -20 26 -21 26 -165
0 -145 0 -145 -22 -142 -20 3 -23 10 -26 61 l-3 57 -54 0 -54 0 -3 -57 c-3
-51 -6 -58 -25 -61 -23 -3 -23 -3 -23 138 0 136 1 142 25 165 33 33 119 36
159 4z m160 -49 c21 -38 39 -70 41 -70 3 0 21 32 40 70 29 58 39 70 60 70 13
0 26 -3 28 -7 2 -5 -20 -53 -49 -107 -48 -88 -54 -106 -54 -158 0 -55 -1 -58
-25 -58 -24 0 -25 3 -25 58 0 52 -6 70 -54 158 -29 54 -51 102 -49 107 2 4 15
7 27 7 19 0 31 -14 60 -70z m426 45 c0 -25 -1 -25 -80 -25 l-80 0 0 -45 0 -44
63 -3 c56 -3 62 -5 65 -25 3 -22 0 -23 -62 -23 l-66 0 0 -45 0 -45 80 0 c79 0
80 0 80 -25 l0 -26 -102 3 -103 3 -3 150 c-1 82 0 155 2 162 4 9 33 13 106 13
l100 0 0 -25z m254 4 c23 -18 26 -27 26 -83 0 -53 -4 -66 -25 -86 l-24 -23 24
-48 c31 -60 31 -69 0 -69 -20 0 -30 11 -55 60 -25 49 -35 60 -55 60 -22 0 -24
-4 -27 -57 -3 -51 -6 -58 -25 -61 l-23 -3 0 159 c0 87 3 162 7 165 3 4 39 7
78 7 58 0 78 -4 99 -21z m548 -80 l53 -100 5 98 c5 92 6 98 28 101 l22 3 0
-165 0 -166 -25 0 c-21 0 -32 14 -77 103 l-53 102 -5 -100 c-5 -94 -6 -100
-27 -103 l-23 -3 0 165 0 166 24 0 c21 0 33 -15 78 -101z m362 80 c26 -20 26
-21 26 -165 0 -145 0 -145 -22 -142 -20 3 -23 10 -26 61 l-3 57 -54 0 -54 0
-3 -57 c-3 -51 -6 -58 -25 -61 -23 -3 -23 -3 -23 138 0 136 1 142 25 165 33
33 119 36 159 4z m191 -48 c19 -38 38 -72 43 -75 4 -3 25 29 45 70 31 63 41
74 62 74 l25 0 0 -166 0 -165 -22 3 c-22 3 -23 8 -26 102 l-3 99 -30 -47 c-38
-61 -63 -60 -99 4 l-25 45 -5 -100 c-5 -94 -6 -100 -27 -103 l-23 -3 0 165 0
166 25 0 c21 0 31 -11 60 -69z m455 44 c0 -25 -1 -25 -80 -25 l-80 0 0 -45 0
-44 63 -3 c56 -3 62 -5 65 -25 3 -22 0 -23 -62 -23 l-66 0 0 -45 0 -45 80 0
c79 0 80 0 80 -25 l0 -26 -102 3 -103 3 -3 150 c-1 82 0 155 2 162 4 9 33 13
106 13 l100 0 0 -25z m-4635 -280 c0 -19 -8 -20 -147 -23 l-148 -3 0 26 0 26
148 -3 c139 -3 147 -4 147 -23z m3460 0 c0 -19 -8 -20 -147 -23 l-148 -3 0 26
0 26 148 -3 c139 -3 147 -4 147 -23z m-13610 -270 c16 -15 25 -36 25 -55 0
-27 -3 -30 -30 -30 -25 0 -30 4 -30 25 0 24 -3 25 -55 25 l-55 0 0 -120 0
-120 55 0 c51 0 55 2 55 23 0 28 17 47 42 47 29 0 25 -74 -7 -105 -21 -22 -33
-25 -90 -25 -57 0 -69 3 -90 25 -24 23 -25 29 -25 155 0 126 1 132 25 155 21
22 33 25 90 25 57 0 69 -3 90 -25z m1429 9 c15 -38 6 -95 -19 -119 -31 -32
-55 -32 -55 -1 0 13 6 27 13 30 9 3 7 9 -5 19 -18 14 -25 67 -11 80 13 14 71
7 77 -9z m695 2 c44 -23 65 -91 41 -135 -6 -13 -3 -30 11 -59 18 -36 19 -46 9
-77 -20 -61 -51 -76 -149 -73 l-86 3 -3 165 c-1 90 0 170 2 177 7 18 139 17
175 -1z m-1409 -40 c0 -21 6 -25 33 -28 27 -2 33 -8 35 -30 3 -26 1 -28 -32
-28 l-36 0 0 -79 0 -80 38 -3 c32 -3 37 -7 40 -30 3 -27 2 -28 -43 -28 -35 0
-51 6 -70 25 -24 23 -25 29 -25 165 l0 140 30 0 c25 0 30 -4 30 -24z m-434
-51 c24 -24 25 -29 22 -137 l-3 -113 -83 -3 c-76 -3 -84 -1 -107 22 -18 18
-25 36 -25 64 0 55 33 84 105 90 45 4 55 8 55 23 0 16 -8 19 -44 19 -60 0 -76
8 -76 36 0 23 3 24 65 24 57 0 69 -3 91 -25z m294 7 c0 -31 -22 -42 -82 -42
-54 0 -58 -1 -58 -24 0 -21 5 -24 57 -28 46 -4 61 -10 80 -32 30 -36 30 -80
-2 -111 -22 -23 -32 -25 -110 -25 -83 0 -85 1 -85 24 0 30 16 36 97 36 61 0
64 1 61 23 -3 19 -10 23 -62 27 -45 4 -62 11 -77 29 -27 33 -25 86 6 116 21
22 33 25 100 25 66 0 75 -2 75 -18z m476 -7 c22 -22 25 -32 22 -83 l-3 -57
-77 -3 c-75 -3 -78 -4 -78 -27 0 -23 4 -25 50 -25 28 0 50 5 50 10 0 6 14 10
30 10 37 0 40 -21 5 -55 -20 -21 -34 -25 -85 -25 -51 0 -65 4 -85 25 -23 22
-25 32 -25 115 0 83 2 93 25 115 20 21 34 25 85 25 52 0 65 -4 86 -25z m242
-2 c-3 -24 -8 -28 -40 -31 l-37 -3 -3 -107 -3 -107 -27 -3 -28 -3 0 116 c0
110 1 117 25 140 19 19 35 25 70 25 45 0 46 -1 43 -27z m402 9 c0 -31 -22 -42
-82 -42 -54 0 -58 -1 -58 -24 0 -21 5 -24 57 -28 46 -4 61 -10 80 -32 30 -36
30 -80 -2 -111 -22 -23 -32 -25 -110 -25 -83 0 -85 1 -85 24 0 30 16 36 97 36
61 0 64 1 61 23 -3 19 -10 23 -62 27 -45 4 -62 11 -77 29 -27 33 -25 86 6 116
21 22 33 25 100 25 66 0 75 -2 75 -18z m745 -7 c23 -22 25 -32 25 -115 0 -83
-2 -93 -25 -115 -20 -21 -34 -25 -85 -25 -51 0 -65 4 -85 25 -23 22 -25 32
-25 115 0 83 2 93 25 115 20 21 34 25 85 25 51 0 65 -4 85 -25z m186 -20 c18
-25 35 -42 39 -38 3 5 18 25 34 46 21 28 34 37 57 37 16 0 29 -4 29 -9 0 -5
-20 -36 -45 -70 l-45 -61 45 -61 c25 -34 45 -65 45 -70 0 -5 -13 -9 -29 -9
-23 0 -36 9 -57 38 -16 20 -31 40 -34 45 -4 4 -21 -13 -39 -38 -26 -36 -38
-45 -62 -45 -16 0 -29 5 -29 12 0 6 18 35 40 64 22 29 40 58 40 64 0 6 -18 35
-40 64 -22 29 -40 58 -40 64 0 7 13 12 29 12 24 0 36 -9 62 -45z m8932 -918
l2 -827 -48 0 c-26 0 -64 7 -85 15 -46 19 -684 652 -712 707 -30 56 -34 108
-15 174 16 58 24 66 353 396 307 306 341 338 387 352 28 8 65 14 83 13 l33 -2
2 -828z m-5848 43 l0 -375 -55 0 -55 0 -3 293 -2 293 -29 -20 c-46 -33 -98
-24 -122 21 -11 21 -5 28 67 95 l79 73 60 -2 60 -3 0 -375z m887 345 c98 -69
119 -218 41 -307 -13 -14 -11 -21 14 -59 24 -36 28 -54 31 -123 4 -100 -20
-155 -86 -201 -41 -28 -50 -30 -155 -33 -102 -3 -116 -1 -157 21 -25 13 -58
43 -75 66 -25 36 -30 52 -30 104 l0 62 33 3 c41 4 82 -21 82 -49 0 -25 18 -60
39 -76 10 -7 48 -12 96 -12 48 0 86 5 96 12 46 35 54 128 15 174 -21 24 -33
29 -93 33 l-68 5 -3 34 c-5 47 29 81 79 81 21 0 49 5 62 11 61 28 61 130 0
158 -13 6 -54 11 -92 11 -76 0 -107 -19 -118 -71 -8 -42 -57 -62 -107 -43 -41
16 -3 142 56 187 54 41 77 47 190 44 100 -2 109 -4 150 -32z m722 19 c12 -30
6 -55 -19 -79 -24 -24 -28 -25 -180 -25 l-155 0 0 -79 0 -79 129 -4 c125 -3
131 -4 173 -33 65 -45 88 -99 88 -205 0 -106 -23 -160 -88 -205 -41 -28 -50
-30 -155 -33 -102 -3 -116 -1 -157 21 -25 13 -58 43 -75 66 -25 36 -30 52 -30
104 l0 62 33 3 c41 4 82 -21 82 -49 0 -25 18 -60 39 -76 21 -16 171 -16 192 0
27 20 39 54 39 106 0 56 -15 96 -39 107 -9 5 -76 11 -149 14 l-134 5 -34 37
-34 38 0 142 c0 118 3 145 17 160 15 16 36 18 233 18 189 0 219 -2 224 -16z
m618 -19 c98 -69 119 -218 41 -307 -13 -14 -11 -21 14 -59 24 -36 28 -54 31
-123 4 -100 -20 -155 -86 -201 -41 -28 -50 -30 -155 -33 -102 -3 -116 -1 -157
21 -25 13 -58 43 -75 66 -25 36 -30 52 -30 104 l0 62 33 3 c41 4 82 -21 82
-49 0 -25 18 -60 39 -76 10 -7 48 -12 96 -12 48 0 86 5 96 12 46 35 54 128 15
174 -21 24 -33 29 -93 33 l-68 5 -3 34 c-5 47 29 81 79 81 21 0 49 5 62 11 61
28 61 130 0 158 -13 6 -54 11 -92 11 -76 0 -107 -19 -118 -71 -8 -42 -57 -62
-107 -43 -41 16 -3 142 56 187 54 41 77 47 190 44 100 -2 109 -4 150 -32z
m940 0 c56 -39 90 -104 86 -165 -3 -44 -3 -45 -41 -48 -46 -4 -72 15 -81 58
-10 53 -38 70 -114 70 -60 0 -71 -3 -92 -25 -20 -21 -25 -39 -28 -96 l-4 -71
25 17 c22 14 45 16 131 13 97 -3 107 -5 148 -33 65 -45 88 -99 88 -205 0 -106
-23 -160 -88 -205 -43 -29 -46 -30 -167 -30 -121 0 -124 1 -166 30 -23 17 -53
50 -66 74 -22 42 -23 53 -23 261 0 136 4 230 11 251 18 52 54 94 101 118 37
19 57 22 140 19 88 -3 100 -5 140 -33z m553 -345 l0 -375 -55 0 -55 0 -3 293
-2 293 -29 -20 c-46 -33 -98 -24 -122 21 -11 21 -5 28 67 95 l79 73 60 -2 60
-3 0 -375z m557 345 c56 -39 90 -104 86 -165 -3 -44 -3 -45 -41 -48 -46 -4
-72 15 -81 58 -10 53 -38 70 -114 70 -60 0 -71 -3 -92 -25 -20 -21 -25 -39
-28 -96 l-4 -71 25 17 c22 14 45 16 131 13 97 -3 107 -5 148 -33 65 -45 88
-99 88 -205 0 -106 -23 -160 -88 -205 -43 -29 -46 -30 -167 -30 -121 0 -124 1
-166 30 -23 17 -53 50 -66 74 -22 42 -23 53 -23 261 0 136 4 230 11 251 18 52
54 94 101 118 37 19 57 22 140 19 88 -3 100 -5 140 -33z m-4002 -595 c24 -13
43 -70 34 -106 -18 -78 -94 -158 -82 -86 3 15 9 35 13 45 5 13 2 17 -14 17
-30 0 -61 35 -61 70 0 53 60 87 110 60z m2310 0 c24 -13 43 -70 34 -106 -18
-78 -94 -158 -82 -86 3 15 9 35 13 45 5 13 2 17 -14 17 -30 0 -61 35 -61 70 0
53 60 87 110 60z"/>
<path d="M9580 3395 l0 -56 53 3 52 3 0 50 0 50 -52 3 -53 3 0 -56z"/>
<path d="M10087 3444 c-4 -4 -7 -29 -7 -56 l0 -48 56 0 55 0 -3 53 -3 52 -45
3 c-25 2 -49 0 -53 -4z"/>
<path d="M10920 3395 l0 -56 53 3 52 3 0 50 0 50 -52 3 -53 3 0 -56z"/>
<path d="M11837 3444 c-4 -4 -7 -29 -7 -56 l0 -48 56 0 55 0 -3 53 -3 52 -45
3 c-25 2 -49 0 -53 -4z"/>
<path d="M13040 3395 l0 -56 53 3 52 3 0 50 0 50 -52 3 -53 3 0 -56z"/>
<path d="M13547 3444 c-4 -4 -7 -29 -7 -56 l0 -48 56 0 55 0 -3 53 -3 52 -45
3 c-25 2 -49 0 -53 -4z"/>
<path d="M14380 3395 l0 -56 53 3 52 3 0 50 0 50 -52 3 -53 3 0 -56z"/>
<path d="M15297 3444 c-4 -4 -7 -29 -7 -56 l0 -48 56 0 55 0 -3 53 -3 52 -45
3 c-25 2 -49 0 -53 -4z"/>
<path d="M3290 2845 c0 -45 0 -45 36 -45 47 0 74 16 74 43 0 34 -19 47 -67 47
l-43 0 0 -45z"/>
<path d="M3290 2695 l0 -45 55 0 c45 0 56 4 66 21 8 16 8 28 0 45 -9 21 -17
24 -66 24 l-55 0 0 -45z"/>
<path d="M1437 2703 c-4 -3 -7 -17 -7 -30 0 -21 4 -23 50 -23 49 0 50 1 50 30
0 29 -2 30 -43 30 -24 0 -47 -3 -50 -7z"/>
<path d="M2200 2785 c0 -23 3 -25 50 -25 47 0 50 2 50 25 0 23 -3 25 -50 25
-47 0 -50 -2 -50 -25z"/>
<path d="M3590 2730 l0 -80 50 0 50 0 0 80 0 80 -50 0 -50 0 0 -80z"/>
<path d="M12725 2676 c-40 -19 -681 -664 -695 -699 -16 -44 -12 -114 9 -155
24 -46 644 -664 689 -686 l32 -17 0 786 c0 432 -1 785 -2 785 -2 -1 -16 -7
-33 -14z m-37 -266 c13 -12 22 -33 22 -50 0 -25 -31 -61 -206 -236 l-206 -206
206 -207 c180 -181 206 -211 206 -238 0 -35 -38 -73 -73 -73 -14 0 -104 82
-264 242 -210 210 -243 247 -243 273 0 26 33 63 242 272 259 259 269 266 316
223z"/>
<path d="M9934 1918 c-30 -14 -44 -50 -44 -109 0 -95 26 -118 135 -118 109 0
135 23 135 118 0 61 -14 95 -47 110 -30 14 -151 13 -179 -1z"/>
<path d="M11044 1918 c-30 -14 -44 -50 -44 -109 0 -95 26 -118 135 -118 109 0
135 23 135 118 0 61 -14 95 -47 110 -30 14 -151 13 -179 -1z"/>
</g>
</svg>
